<svg width="24" height="11" viewBox="0 0 24 11" fill="none" xmlns="http://www.w3.org/2000/svg">
<path opacity="0.35" d="M0.5 2.66667C0.5 1.47005 1.47005 0.5 2.66667 0.5H19.0367C20.2333 0.5 21.2034 1.47005 21.2034 2.66667V8.33333C21.2034 9.52995 20.2333 10.5 19.0367 10.5H2.66666C1.47005 10.5 0.5 9.52995 0.5 8.33333V2.66667Z" stroke="white"/>
<path opacity="0.4" d="M22.6899 3.55883V7.44118C23.4838 7.11237 24 6.34746 24 5.5C24 4.65255 23.4838 3.88764 22.6899 3.55883Z" fill="white"/>
<path d="M1.97304 3.27451C1.97304 2.53813 2.56999 1.94118 3.30637 1.94118H18.397C19.1334 1.94118 19.7303 2.53813 19.7303 3.27451V7.72549C19.7303 8.46187 19.1334 9.05883 18.397 9.05883H3.30637C2.56999 9.05883 1.97304 8.46187 1.97304 7.72549V3.27451Z" fill="white"/>
</svg>
