<svg width="17" height="11" viewBox="0 0 17 11" fill="none" xmlns="http://www.w3.org/2000/svg">
<path fill-rule="evenodd" clip-rule="evenodd" d="M16 0H15C14.4477 0 14 0.461706 14 1.03125V9.96875C14 10.5383 14.4477 11 15 11H16C16.5523 11 17 10.5383 17 9.96875V1.03125C17 0.461706 16.5523 0 16 0ZM10.3333 2.40625H11.3333C11.8856 2.40625 12.3333 2.86796 12.3333 3.4375V9.96875C12.3333 10.5383 11.8856 11 11.3333 11H10.3333C9.78104 11 9.33333 10.5383 9.33333 9.96875V3.4375C9.33333 2.86796 9.78104 2.40625 10.3333 2.40625ZM6.66666 4.8125H5.66666C5.11438 4.8125 4.66666 5.27421 4.66666 5.84375V9.96875C4.66666 10.5383 5.11438 11 5.66666 11H6.66666C7.21895 11 7.66666 10.5383 7.66666 9.96875V5.84375C7.66666 5.27421 7.21895 4.8125 6.66666 4.8125ZM2 6.875H1C0.447715 6.875 0 7.33671 0 7.90625V9.96875C0 10.5383 0.447715 11 1 11H2C2.55228 11 3 10.5383 3 9.96875V7.90625C3 7.33671 2.55228 6.875 2 6.875Z" fill="white"/>
</svg>
