<svg width="15" height="11" viewBox="0 0 15 11" fill="none" xmlns="http://www.w3.org/2000/svg">
<path fill-rule="evenodd" clip-rule="evenodd" d="M7.50041 2.28448C9.67678 2.28457 11.7699 3.13868 13.3472 4.67028C13.466 4.78852 13.6559 4.78703 13.7728 4.66693L14.9082 3.4966C14.9675 3.43569 15.0005 3.35318 15 3.26733C14.9995 3.18148 14.9655 3.09937 14.9056 3.03917C10.7657 -1.01306 4.23448 -1.01306 0.0945555 3.03917C0.0345859 3.09933 0.000559834 3.18141 6.84646e-06 3.26726C-0.000546141 3.35311 0.0324195 3.43565 0.091609 3.4966L1.22732 4.66693C1.34423 4.78721 1.53422 4.7887 1.65292 4.67028C3.23043 3.13858 5.32382 2.28447 7.50041 2.28448ZM7.50041 6.09206C8.69619 6.09199 9.84929 6.54594 10.7357 7.36572C10.8556 7.48206 11.0444 7.47954 11.1613 7.36003L12.2953 6.1897C12.3551 6.12831 12.3882 6.04504 12.3873 5.9585C12.3865 5.87197 12.3517 5.78939 12.2908 5.72926C9.59158 3.16485 5.41154 3.16485 2.71236 5.72926C2.65139 5.78939 2.6166 5.87201 2.6158 5.95857C2.615 6.04513 2.64825 6.1284 2.7081 6.1897L3.84185 7.36003C3.95871 7.47954 4.14757 7.48206 4.26745 7.36572C5.15324 6.54648 6.30543 6.09257 7.50041 6.09206ZM9.77216 8.6539C9.7739 8.74068 9.74049 8.82435 9.67984 8.88514L7.71813 10.9071C7.66062 10.9666 7.58222 11 7.50042 11C7.41861 11 7.34021 10.9666 7.2827 10.9071L5.32066 8.88514C5.26005 8.8243 5.22671 8.74061 5.22851 8.65383C5.23031 8.56705 5.26708 8.48488 5.33016 8.42671C6.58298 7.34444 8.41785 7.34444 9.67068 8.42671C9.73371 8.48493 9.77042 8.56713 9.77216 8.6539Z" fill="white"/>
</svg>
