<svg width="24" height="24" viewBox="0 0 24 24" fill="none" xmlns="http://www.w3.org/2000/svg">
<path d="M17.8125 1.875C15.5775 1.875 13.3425 2.79375 12 5.5575C10.6575 2.79375 8.4225 1.875 6.1875 1.875C3.05625 1.875 0.375 3.71625 0.375 7.95C0.373674 8.9377 0.489483 9.92207 0.72 10.8825C2.53875 18.465 10.995 22.125 12 22.125C12.9862 22.125 21.1875 18.585 23.1863 11.25C23.4799 10.1747 23.6275 9.0647 23.625 7.95C23.625 3.71625 20.9438 1.875 17.8125 1.875Z" fill="#E63B47"/>
<path d="M8.62501 10.5H15.375C17.0601 10.4999 18.7048 9.98403 20.0881 9.02164C21.4713 8.05924 22.5269 6.69648 23.1128 5.1165C22.1903 2.88412 20.1259 1.875 17.8125 1.875C15.5775 1.875 13.3425 2.79375 12 5.5575C10.6575 2.79375 8.42251 1.875 6.18751 1.875C3.87413 1.875 1.80976 2.88412 0.887257 5.1165C1.47316 6.69648 2.52867 8.05924 3.91192 9.02164C5.29518 9.98403 6.93989 10.4999 8.62501 10.5Z" fill="#FF505B"/>
<path d="M15.8651 3.54903C15.6026 3.69415 15.3383 3.91315 15.3776 4.17228C15.4402 4.36282 15.5748 4.52136 15.7526 4.61403C16.0706 4.8319 16.4108 5.02653 16.752 5.21928C17.4049 5.58903 18.0626 5.9539 18.7429 6.28803C19.1697 6.52419 19.6368 6.67871 20.1203 6.74365C20.2314 6.75564 20.3437 6.7516 20.4536 6.73165C20.6586 6.6814 20.842 6.56663 20.9768 6.40428C21.2106 6.13059 21.3489 5.78811 21.3705 5.42877C21.3922 5.06942 21.2961 4.71282 21.0968 4.41303C20.1191 2.83428 17.526 2.62728 15.8651 3.54903Z" fill="#FF99A0"/>
<path d="M4.99014 3.54903C4.72764 3.69415 4.46326 3.91315 4.50264 4.17228C4.5652 4.36282 4.69978 4.52136 4.87764 4.61403C5.19564 4.8319 5.53576 5.02653 5.87701 5.21928C6.52989 5.58903 7.18952 5.9539 7.86789 6.28803C8.2947 6.52419 8.76181 6.67871 9.24526 6.74365C9.35639 6.75564 9.46866 6.7516 9.57864 6.73165C9.78427 6.68176 9.96836 6.56697 10.1036 6.40428C10.3375 6.13059 10.4757 5.78811 10.4974 5.42877C10.5191 5.06942 10.4229 4.71282 10.2236 4.41303C9.24414 2.83428 6.65101 2.62728 4.99014 3.54903Z" fill="#FF99A0"/>
<path d="M23.2748 10.8799C23.2662 10.8799 23.2587 10.875 23.25 10.875H17.8332L16.068 8.05127C16.0324 7.99425 15.9821 7.94785 15.9224 7.91694C15.8627 7.88603 15.7957 7.87174 15.7286 7.87557C15.6615 7.87941 15.5966 7.90122 15.5408 7.93873C15.485 7.97624 15.4403 8.02806 15.4114 8.08877L12.0364 15.1763L8.60028 6.2404C8.57424 6.1724 8.52896 6.11346 8.46997 6.07077C8.41099 6.02807 8.34085 6.00347 8.26812 5.99998C8.19539 5.99648 8.12321 6.01423 8.0604 6.05106C7.99759 6.08789 7.94686 6.14222 7.91441 6.2074L5.76828 10.5H0.750033C0.713925 10.5019 0.678293 10.5091 0.644283 10.5214C0.669408 10.6418 0.691533 10.764 0.719283 10.8825C0.749283 11.007 0.785283 11.1278 0.819033 11.25H6.00003C6.06972 11.2501 6.13804 11.2307 6.19732 11.194C6.2566 11.1574 6.30451 11.105 6.33566 11.0426L8.20541 7.30315L11.6498 16.2596C11.6761 16.3281 11.722 16.3873 11.7816 16.43C11.8413 16.4726 11.9121 16.4968 11.9854 16.4996H12C12.0707 16.4994 12.1399 16.4793 12.1996 16.4415C12.2593 16.4036 12.3071 16.3497 12.3375 16.2859L15.7935 9.02852L17.3059 11.4484C17.3397 11.5026 17.3867 11.5472 17.4426 11.5781C17.4984 11.609 17.5612 11.6252 17.625 11.625H23.0727C23.1102 11.5001 23.1518 11.3771 23.1852 11.25C23.2197 11.1289 23.2452 11.0033 23.2748 10.8799Z" fill="#FBFBFB"/>
</svg>
