<svg width="24" height="24" viewBox="0 0 24 24" fill="none" xmlns="http://www.w3.org/2000/svg">
<path d="M15.75 15C15.75 16.2609 15.3761 17.4934 14.6756 18.5418C13.9751 19.5901 12.9795 20.4072 11.8146 20.8897C10.6497 21.3722 9.36792 21.4985 8.13129 21.2525C6.89466 21.0065 5.75874 20.3994 4.86718 19.5078C3.97562 18.6162 3.36846 17.4803 3.12248 16.2437C2.8765 15.0071 3.00275 13.7253 3.48526 12.5604C3.96776 11.3955 4.78486 10.3999 5.83323 9.69938C6.88159 8.99889 8.11413 8.625 9.37499 8.625C10.2122 8.625 11.0411 8.78989 11.8146 9.11027C12.588 9.43064 13.2908 9.90022 13.8828 10.4922C14.4748 11.0842 14.9443 11.7869 15.2647 12.5604C15.5851 13.3338 15.75 14.1628 15.75 15ZM10.875 19.875C13.875 19.875 14.25 15.375 14.25 15.375V15.33C14.2498 14.993 14.1738 14.6603 14.0278 14.3565C13.8818 14.0527 13.6693 13.7857 13.4062 13.575L12.9525 13.2113C13.0653 12.9468 13.1239 12.6625 13.125 12.375C13.125 11.7783 12.8879 11.206 12.466 10.784C12.044 10.3621 11.4717 10.125 10.875 10.125C10.2782 10.125 9.70595 10.3621 9.284 10.784C8.86204 11.206 8.62499 11.7783 8.62499 12.375C8.62499 13.6163 10.5 14.625 11.25 14.625V15L10.5 15.375L8.86499 14.6175C8.77679 14.5639 8.67567 14.5354 8.57249 14.535C8.44574 14.5345 8.32238 14.5759 8.22163 14.6528C8.12087 14.7297 8.04837 14.8378 8.01542 14.9601C7.98247 15.0825 7.99092 15.2124 8.03945 15.3295C8.08798 15.4466 8.17387 15.5443 8.28374 15.6075L10.5 16.875V17.25L8.32499 16.95C8.18951 16.9281 8.05061 16.9433 7.92314 16.9942C7.79566 17.045 7.6844 17.1296 7.60124 17.2388L6.74999 18.375L5.99999 18.75L6.68249 19.2075C6.81184 19.2933 6.96463 19.3369 7.11979 19.3322C7.27494 19.3275 7.42482 19.2747 7.54874 19.1813L8.62499 18.375C8.62499 18.375 9.74999 19.875 10.875 19.875Z" fill="#FF7D85"/>
<path d="M14.25 15.33V15.375C14.25 15.375 13.875 19.875 10.875 19.875C9.75 19.875 8.625 18.375 8.625 18.375L7.54875 19.1812C7.42483 19.2747 7.27495 19.3274 7.1198 19.3321C6.96465 19.3368 6.81185 19.2933 6.6825 19.2075L6 18.75L6.75 18.375L7.60125 17.2387C7.68441 17.1295 7.79567 17.045 7.92315 16.9941C8.05062 16.9433 8.18952 16.928 8.325 16.95L10.5 17.25V16.875L8.28375 15.6075C8.17388 15.5443 8.08799 15.4465 8.03946 15.3294C7.99093 15.2123 7.98248 15.0825 8.01543 14.9601C8.04838 14.8377 8.12088 14.7297 8.22164 14.6528C8.3224 14.5759 8.44575 14.5344 8.5725 14.535C8.67568 14.5354 8.7768 14.5639 8.865 14.6175L10.5 15.375L11.25 15V14.625C11.82 14.625 12.6113 14.04 12.9525 13.2112L13.4062 13.575C13.6694 13.7856 13.8818 14.0527 14.0278 14.3565C14.1739 14.6602 14.2498 14.9929 14.25 15.33Z" fill="#FFCDB0"/>
<path d="M12.9525 13.2112C12.6113 14.04 11.82 14.625 11.25 14.625C10.5 14.625 8.625 13.6163 8.625 12.375C8.625 11.7783 8.86205 11.206 9.28401 10.784C9.70597 10.3621 10.2783 10.125 10.875 10.125C11.4717 10.125 12.044 10.3621 12.466 10.784C12.8879 11.206 13.125 11.7783 13.125 12.375C13.1239 12.6625 13.0653 12.9468 12.9525 13.2112Z" fill="#FFCDB0"/>
<path d="M11.625 13.875C10.875 13.875 9 12.8663 9 11.625C9.00058 11.4188 9.0296 11.2136 9.08625 11.0153C8.7873 11.4055 8.6252 11.8834 8.625 12.375C8.625 13.6163 10.5 14.625 11.25 14.625C11.82 14.625 12.6113 14.04 12.9525 13.2113C12.9844 13.1344 13.0119 13.0557 13.035 12.9758C12.8792 13.2189 12.6725 13.4253 12.429 13.5806C12.1855 13.7359 11.9112 13.8363 11.625 13.875Z" fill="#FEC09B"/>
<path d="M22.5 23.625H6.75V22.5C6.75 22.5 1.5 21 1.5 15.75C1.5 9.375 7.125 6 7.125 6C5.625 6 4.875 5.25 4.875 3.75C4.875 2.25 6.375 0.75 6.375 0.75V0.375H21C21 0.375 18 8.625 18.375 11.625C18.75 14.625 22.5 17.625 22.5 23.625ZM15.75 15C15.75 13.7391 15.3761 12.5066 14.6756 11.4582C13.9751 10.4099 12.9795 9.59278 11.8146 9.11027C10.6497 8.62776 9.36793 8.50151 8.1313 8.74749C6.89467 8.99347 5.75875 9.60063 4.86719 10.4922C3.97563 11.3838 3.36847 12.5197 3.12249 13.7563C2.87651 14.9929 3.00276 16.2747 3.48527 17.4396C3.96778 18.6045 4.78488 19.6001 5.83324 20.3006C6.8816 21.0011 8.11414 21.375 9.375 21.375C10.2122 21.375 11.0412 21.2101 11.8146 20.8897C12.5881 20.5694 13.2908 20.0998 13.8828 19.5078C14.4748 18.9158 14.9444 18.2131 15.2647 17.4396C15.5851 16.6662 15.75 15.8372 15.75 15Z" fill="#FEC09B"/>
<path d="M21 0.375H19.5C19.5 0.375 16.875 6.75 16.875 10.875C16.875 15 18.75 16.875 19.5 18.375C20.25 19.875 19.875 23.625 19.875 23.625H22.5C22.5 17.625 18.75 14.625 18.375 11.625C18 8.625 21 0.375 21 0.375Z" fill="#FFD6BD"/>
<path d="M18 23.0625C18 22.9133 17.9407 22.7702 17.8352 22.6648C17.7298 22.5593 17.5867 22.5 17.4375 22.5H6.75V23.625H17.4375C17.5867 23.625 17.7298 23.5657 17.8352 23.4602C17.9407 23.3548 18 23.2117 18 23.0625Z" fill="#EBA47A"/>
<path d="M9.37499 8.625C8.11413 8.625 6.88159 8.99889 5.83323 9.69938C4.78486 10.3999 3.96776 11.3955 3.48526 12.5604C3.00275 13.7253 2.8765 15.0071 3.12248 16.2437C3.36846 17.4803 3.97562 18.6162 4.86718 19.5078C5.75874 20.3994 6.89466 21.0065 8.13129 21.2525C9.36792 21.4985 10.6497 21.3722 11.8146 20.8897C12.9795 20.4072 13.9751 19.5901 14.6756 18.5418C15.3761 17.4934 15.75 16.2609 15.75 15C15.75 14.1628 15.5851 13.3338 15.2647 12.5604C14.9443 11.7869 14.4748 11.0842 13.8828 10.4922C13.2908 9.90022 12.588 9.43064 11.8146 9.11027C11.0411 8.78989 10.2122 8.625 9.37499 8.625ZM9.37499 20.625C8.26247 20.625 7.17493 20.2951 6.2499 19.677C5.32488 19.0589 4.60391 18.1804 4.17816 17.1526C3.75242 16.1248 3.64103 14.9938 3.85807 13.9026C4.07511 12.8115 4.61084 11.8092 5.39751 11.0225C6.18418 10.2359 7.18646 9.70012 8.2776 9.48308C9.36875 9.26604 10.4997 9.37743 11.5276 9.80318C12.5554 10.2289 13.4339 10.9499 14.052 11.8749C14.6701 12.7999 15 13.8875 15 15C15 16.4918 14.4074 17.9226 13.3525 18.9775C12.2976 20.0324 10.8668 20.625 9.37499 20.625Z" fill="#FF505B"/>
<path d="M11.6321 15.3678L12 15C12 15 13.0748 13.8318 13.1141 13.3406L12.9525 13.2112C12.6113 14.04 11.82 14.625 11.25 14.625V15L10.5 15.375L10.7666 15.5081C10.9074 15.5785 11.0667 15.6028 11.222 15.5776C11.3773 15.5524 11.5208 15.4791 11.6321 15.3678Z" fill="#EBA47A"/>
<path d="M12 16.9635C12 16.9147 11.9875 16.8667 11.9637 16.824C11.9399 16.7814 11.9056 16.7455 11.864 16.7198C11.8225 16.6942 11.7751 16.6796 11.7263 16.6774C11.6775 16.6752 11.6289 16.6855 11.5852 16.7074L11.25 16.875H10.5V17.25H11.7135C11.7511 17.25 11.7884 17.2426 11.8231 17.2282C11.8579 17.2138 11.8895 17.1927 11.9161 17.1661C11.9427 17.1395 11.9638 17.1079 11.9782 17.0732C11.9926 17.0384 12 17.0011 12 16.9635Z" fill="#FEC09B"/>
<path d="M8.625 18L7.5495 18.8066C7.42538 18.8997 7.27545 18.952 7.12038 18.9563C6.9653 18.9606 6.81271 18.9167 6.68363 18.8306L6.32138 18.5891L6 18.75L6.6825 19.2075C6.81185 19.2933 6.96465 19.3369 7.1198 19.3322C7.27495 19.3275 7.42483 19.2747 7.54875 19.1813L8.625 18.375C8.625 18.375 9.75 19.875 10.875 19.875C11.2822 19.8765 11.6843 19.7837 12.0496 19.6039C12.415 19.4241 12.7338 19.1621 12.981 18.8385C12.3438 19.2283 11.6206 19.4555 10.875 19.5C9.75 19.5 8.625 18 8.625 18Z" fill="#FEC09B"/>
</svg>
